<svg width="150" height="150" viewBox="0 0 150 150" fill="none" xmlns="http://www.w3.org/2000/svg">
<path d="M50 81.25V106.25H37.5V118.75H50H56.25V131.25H68.75V118.75H81.25V131.25H93.75V118.431C106.05 116.875 115.625 106.463 115.625 93.75C115.625 85.5 111.562 78.225 105.375 73.6687C109.769 69.1625 112.5 63.025 112.5 56.25C112.5 44.6375 104.506 34.9313 93.75 32.1375V18.75H81.25V31.25H68.75V18.75H56.25V31.25H37.5V43.75H50V68.75V81.25ZM90.625 106.25H62.5V81.25H90.625C97.5187 81.25 103.125 86.8562 103.125 93.75C103.125 100.644 97.5187 106.25 90.625 106.25ZM62.5 43.75H87.5C94.3937 43.75 100 49.3562 100 56.25C100 63.1437 94.3937 68.75 87.5 68.75H62.5V43.75Z" fill="black"/>
</svg>
