<svg width="50" height="50" viewBox="0 0 50 50" fill="none" xmlns="http://www.w3.org/2000/svg">
<path d="M25 4.16663C13.5125 4.16663 4.16667 13.5125 4.16667 25C4.16667 36.4875 13.5125 45.8333 25 45.8333C36.4875 45.8333 45.8333 36.4875 45.8333 25C45.8333 13.5125 36.4875 4.16663 25 4.16663ZM25 41.6666C15.8104 41.6666 8.33333 34.1895 8.33333 25C8.33333 15.8104 15.8104 8.33329 25 8.33329C34.1896 8.33329 41.6667 15.8104 41.6667 25C41.6667 34.1895 34.1896 41.6666 25 41.6666Z" fill="white"/>
<path d="M22.9167 22.9167H27.0833V35.4167H22.9167V22.9167ZM22.9167 14.5834H27.0833V18.75H22.9167V14.5834Z" fill="white"/>
</svg>
