<svg width="150" height="150" viewBox="0 0 150 150" fill="none" xmlns="http://www.w3.org/2000/svg">
<path d="M75 150C33.5766 150 0 116.423 0 75C0 33.5766 33.5766 0 75 0C116.423 0 150 33.5766 150 75C150 116.423 116.423 150 75 150ZM108.141 37.5L86.7 58.7016C83.5805 61.7806 79.3737 63.507 74.9906 63.507C70.6075 63.507 66.4008 61.7806 63.2812 58.7016L41.8594 37.5H28.2891L56.5078 65.4234C61.4374 70.2803 68.0798 73.0028 75 73.0028C81.9202 73.0028 88.5626 70.2803 93.4922 65.4234L121.692 37.5H108.145H108.141ZM41.6953 115.139L63.3 93.75C66.4195 90.671 70.6263 88.9445 75.0094 88.9445C79.3925 88.9445 83.5992 90.671 86.7188 93.75L108.305 115.139H121.875L93.4922 87.0469C88.5626 82.19 81.9202 79.4675 75 79.4675C68.0798 79.4675 61.4374 82.19 56.5078 87.0469L28.125 115.134H41.6953V115.139Z" fill="black"/>
</svg>
